<?xml version="1.0" standalone="no"?>
<!DOCTYPE svg PUBLIC "-//W3C//DTD SVG 20010904//EN"
 "http://www.w3.org/TR/2001/REC-SVG-20010904/DTD/svg10.dtd">
<svg version="1.0" xmlns="http://www.w3.org/2000/svg"
 width="360.000000pt" height="360.000000pt" viewBox="0 0 360.000000 360.000000"
 preserveAspectRatio="xMidYMid meet">

<g transform="translate(0.000000,360.000000) scale(0.100000,-0.100000)"
fill="#FFFFFF" stroke="none">
<path d="M1348 2502 c-38 -39 -58 -67 -58 -83 0 -17 86 -110 350 -374 193
-193 350 -353 350 -357 0 -4 -156 -165 -347 -358 -192 -194 -349 -361 -351
-372 -4 -22 114 -148 139 -148 7 0 206 192 441 427 335 335 428 433 428 453 0
35 -833 870 -869 870 -16 0 -43 -19 -83 -58z"/>
</g>
</svg>
